<mxfile host="app.diagrams.net" modified="2024-07-19T16:39:29.316Z" agent="Mozilla/5.0 (Windows NT 10.0; Win64; x64) AppleWebKit/537.36 (KHTML, like Gecko) Chrome/126.0.0.0 Safari/537.36" etag="xn4J2cEGW2Mfftj9fJ1o" version="24.7.2" type="github">
  <diagram name="Page-1" id="IkA_VK86Y6AG_sND600d">
    <mxGraphModel dx="1050" dy="557" grid="0" gridSize="10" guides="1" tooltips="1" connect="1" arrows="1" fold="1" page="1" pageScale="1" pageWidth="850" pageHeight="1100" math="0" shadow="0">
      <root>
        <mxCell id="0" />
        <mxCell id="1" parent="0" />
        <mxCell id="Md4oS-6Q53LpxxrgLM5H-1" value="" style="image;sketch=0;aspect=fixed;html=1;points=[];align=center;fontSize=12;image=img/lib/mscae/Service_Bus_Relay.svg;" vertex="1" parent="1">
          <mxGeometry x="425" y="140" width="50" height="50" as="geometry" />
        </mxCell>
        <mxCell id="Md4oS-6Q53LpxxrgLM5H-2" value="" style="pointerEvents=1;shadow=0;dashed=0;html=1;strokeColor=none;fillColor=#4495D1;labelPosition=center;verticalLabelPosition=bottom;verticalAlign=top;align=center;outlineConnect=0;shape=mxgraph.veeam.2d.esx_esxi;" vertex="1" parent="1">
          <mxGeometry x="600" y="134" width="33.2" height="50.8" as="geometry" />
        </mxCell>
        <mxCell id="Md4oS-6Q53LpxxrgLM5H-6" value="" style="aspect=fixed;sketch=0;html=1;dashed=0;whitespace=wrap;verticalLabelPosition=bottom;verticalAlign=top;fillColor=#2875E2;strokeColor=#ffffff;points=[[0.005,0.63,0],[0.1,0.2,0],[0.9,0.2,0],[0.5,0,0],[0.995,0.63,0],[0.72,0.99,0],[0.5,1,0],[0.28,0.99,0]];shape=mxgraph.kubernetes.icon2;kubernetesLabel=1;prIcon=api" vertex="1" parent="1">
          <mxGeometry x="710" y="86" width="50" height="48" as="geometry" />
        </mxCell>
        <mxCell id="Md4oS-6Q53LpxxrgLM5H-7" value="" style="aspect=fixed;sketch=0;html=1;dashed=0;whitespace=wrap;verticalLabelPosition=bottom;verticalAlign=top;fillColor=#2875E2;strokeColor=#ffffff;points=[[0.005,0.63,0],[0.1,0.2,0],[0.9,0.2,0],[0.5,0,0],[0.995,0.63,0],[0.72,0.99,0],[0.5,1,0],[0.28,0.99,0]];shape=mxgraph.kubernetes.icon2;prIcon=api" vertex="1" parent="1">
          <mxGeometry x="710" y="208" width="50" height="48" as="geometry" />
        </mxCell>
        <mxCell id="Md4oS-6Q53LpxxrgLM5H-9" value="" style="endArrow=classic;startArrow=classic;html=1;rounded=0;" edge="1" parent="1" source="Md4oS-6Q53LpxxrgLM5H-2">
          <mxGeometry width="50" height="50" relative="1" as="geometry">
            <mxPoint x="660" y="160" as="sourcePoint" />
            <mxPoint x="710" y="110" as="targetPoint" />
            <Array as="points">
              <mxPoint x="620" y="110" />
            </Array>
          </mxGeometry>
        </mxCell>
        <mxCell id="Md4oS-6Q53LpxxrgLM5H-10" value="" style="endArrow=classic;startArrow=classic;html=1;rounded=0;" edge="1" parent="1" source="Md4oS-6Q53LpxxrgLM5H-2">
          <mxGeometry width="50" height="50" relative="1" as="geometry">
            <mxPoint x="618" y="256" as="sourcePoint" />
            <mxPoint x="710" y="232" as="targetPoint" />
            <Array as="points">
              <mxPoint x="617" y="230" />
            </Array>
          </mxGeometry>
        </mxCell>
        <mxCell id="Md4oS-6Q53LpxxrgLM5H-12" value="" style="swimlane;startSize=0;" vertex="1" parent="1">
          <mxGeometry x="550" y="70" width="230" height="210" as="geometry" />
        </mxCell>
        <mxCell id="Md4oS-6Q53LpxxrgLM5H-33" value="Application 1" style="text;html=1;align=center;verticalAlign=middle;whiteSpace=wrap;rounded=0;" vertex="1" parent="Md4oS-6Q53LpxxrgLM5H-12">
          <mxGeometry x="145" y="70" width="80" height="30" as="geometry" />
        </mxCell>
        <mxCell id="Md4oS-6Q53LpxxrgLM5H-34" value="Application 2" style="text;html=1;align=center;verticalAlign=middle;whiteSpace=wrap;rounded=0;" vertex="1" parent="Md4oS-6Q53LpxxrgLM5H-12">
          <mxGeometry x="145" y="180" width="80" height="30" as="geometry" />
        </mxCell>
        <mxCell id="Md4oS-6Q53LpxxrgLM5H-13" value="" style="endArrow=classic;startArrow=classic;html=1;rounded=0;" edge="1" parent="1" target="Md4oS-6Q53LpxxrgLM5H-2">
          <mxGeometry width="50" height="50" relative="1" as="geometry">
            <mxPoint x="480" y="160" as="sourcePoint" />
            <mxPoint x="500" y="260" as="targetPoint" />
            <Array as="points" />
          </mxGeometry>
        </mxCell>
        <mxCell id="Md4oS-6Q53LpxxrgLM5H-14" value="" style="swimlane;startSize=0;" vertex="1" parent="1">
          <mxGeometry x="170" y="70" width="178" height="210" as="geometry" />
        </mxCell>
        <mxCell id="Md4oS-6Q53LpxxrgLM5H-5" value="" style="image;aspect=fixed;html=1;points=[];align=center;fontSize=12;image=img/lib/azure2/containers/App_Services.svg;" vertex="1" parent="Md4oS-6Q53LpxxrgLM5H-14">
          <mxGeometry x="57" y="120" width="64" height="64" as="geometry" />
        </mxCell>
        <mxCell id="Md4oS-6Q53LpxxrgLM5H-3" value="" style="image;aspect=fixed;html=1;points=[];align=center;fontSize=12;image=img/lib/azure2/app_services/App_Services.svg;" vertex="1" parent="Md4oS-6Q53LpxxrgLM5H-14">
          <mxGeometry x="57" y="20" width="64" height="64" as="geometry" />
        </mxCell>
        <mxCell id="Md4oS-6Q53LpxxrgLM5H-16" value="" style="endArrow=classic;startArrow=classic;html=1;rounded=0;entryX=1.059;entryY=0.459;entryDx=0;entryDy=0;entryPerimeter=0;exitX=1.009;exitY=0.497;exitDx=0;exitDy=0;exitPerimeter=0;" edge="1" parent="Md4oS-6Q53LpxxrgLM5H-14" source="Md4oS-6Q53LpxxrgLM5H-5" target="Md4oS-6Q53LpxxrgLM5H-3">
          <mxGeometry width="50" height="50" relative="1" as="geometry">
            <mxPoint x="200" y="180" as="sourcePoint" />
            <mxPoint x="330" y="190" as="targetPoint" />
            <Array as="points">
              <mxPoint x="190" y="150" />
              <mxPoint x="190" y="90" />
              <mxPoint x="190" y="49" />
            </Array>
          </mxGeometry>
        </mxCell>
        <mxCell id="Md4oS-6Q53LpxxrgLM5H-15" value="" style="endArrow=classic;html=1;rounded=0;entryX=0.1;entryY=0.4;entryDx=0;entryDy=0;entryPerimeter=0;" edge="1" parent="1" target="Md4oS-6Q53LpxxrgLM5H-1">
          <mxGeometry width="50" height="50" relative="1" as="geometry">
            <mxPoint x="360" y="160" as="sourcePoint" />
            <mxPoint x="410" y="160" as="targetPoint" />
          </mxGeometry>
        </mxCell>
        <mxCell id="Md4oS-6Q53LpxxrgLM5H-21" value="" style="outlineConnect=0;dashed=0;verticalLabelPosition=bottom;verticalAlign=top;align=center;html=1;shape=mxgraph.aws3.internet_2;fillColor=#D2D3D3;gradientColor=none;" vertex="1" parent="1">
          <mxGeometry x="20" y="110" width="79.5" height="54" as="geometry" />
        </mxCell>
        <mxCell id="Md4oS-6Q53LpxxrgLM5H-22" value="" style="endArrow=classic;html=1;rounded=0;entryX=0.38;entryY=0.025;entryDx=0;entryDy=0;entryPerimeter=0;" edge="1" parent="1" target="Md4oS-6Q53LpxxrgLM5H-21">
          <mxGeometry width="50" height="50" relative="1" as="geometry">
            <mxPoint x="50" y="40" as="sourcePoint" />
            <mxPoint x="20" y="30" as="targetPoint" />
          </mxGeometry>
        </mxCell>
        <mxCell id="Md4oS-6Q53LpxxrgLM5H-23" value="" style="endArrow=classic;html=1;rounded=0;" edge="1" parent="1" target="Md4oS-6Q53LpxxrgLM5H-21">
          <mxGeometry width="50" height="50" relative="1" as="geometry">
            <mxPoint x="60" y="230" as="sourcePoint" />
            <mxPoint x="90" y="400" as="targetPoint" />
          </mxGeometry>
        </mxCell>
        <mxCell id="Md4oS-6Q53LpxxrgLM5H-24" value="" style="endArrow=classic;html=1;rounded=0;" edge="1" parent="1" source="Md4oS-6Q53LpxxrgLM5H-21">
          <mxGeometry width="50" height="50" relative="1" as="geometry">
            <mxPoint x="450" y="310" as="sourcePoint" />
            <mxPoint x="160" y="140" as="targetPoint" />
          </mxGeometry>
        </mxCell>
        <mxCell id="Md4oS-6Q53LpxxrgLM5H-25" value="" style="html=1;verticalLabelPosition=bottom;align=center;labelBackgroundColor=#ffffff;verticalAlign=top;strokeWidth=2;strokeColor=#0080F0;shadow=0;dashed=0;shape=mxgraph.ios7.icons.smartphone;" vertex="1" parent="1">
          <mxGeometry x="40" y="10" width="18" height="30" as="geometry" />
        </mxCell>
        <mxCell id="Md4oS-6Q53LpxxrgLM5H-26" value="" style="shape=image;html=1;verticalAlign=top;verticalLabelPosition=bottom;labelBackgroundColor=#ffffff;imageAspect=0;aspect=fixed;image=https://cdn4.iconfinder.com/data/icons/essential-app-2/16/app-tile-block-menu-setting-128.png" vertex="1" parent="1">
          <mxGeometry x="43.88" y="224.25" width="31.75" height="31.75" as="geometry" />
        </mxCell>
        <mxCell id="Md4oS-6Q53LpxxrgLM5H-27" value="Mobile Application" style="text;html=1;align=center;verticalAlign=middle;whiteSpace=wrap;rounded=0;" vertex="1" parent="1">
          <mxGeometry x="76" y="10" width="60" height="30" as="geometry" />
        </mxCell>
        <mxCell id="Md4oS-6Q53LpxxrgLM5H-28" value="&lt;b&gt;Azure Relay&lt;/b&gt;" style="text;html=1;align=center;verticalAlign=middle;whiteSpace=wrap;rounded=0;" vertex="1" parent="1">
          <mxGeometry x="410" y="86" width="80" height="30" as="geometry" />
        </mxCell>
        <mxCell id="Md4oS-6Q53LpxxrgLM5H-29" value="User Application" style="text;html=1;align=center;verticalAlign=middle;whiteSpace=wrap;rounded=0;" vertex="1" parent="1">
          <mxGeometry x="40" y="270" width="60" height="30" as="geometry" />
        </mxCell>
        <mxCell id="Md4oS-6Q53LpxxrgLM5H-31" value="&lt;b&gt;Azure App Service&lt;/b&gt;" style="text;html=1;align=center;verticalAlign=middle;whiteSpace=wrap;rounded=0;" vertex="1" parent="1">
          <mxGeometry x="190" y="30" width="120" height="30" as="geometry" />
        </mxCell>
        <mxCell id="Md4oS-6Q53LpxxrgLM5H-32" value="&lt;b&gt;On-Premise&lt;/b&gt;" style="text;html=1;align=center;verticalAlign=middle;whiteSpace=wrap;rounded=0;" vertex="1" parent="1">
          <mxGeometry x="610" y="20" width="110" height="30" as="geometry" />
        </mxCell>
        <mxCell id="Md4oS-6Q53LpxxrgLM5H-35" value="" style="endArrow=none;dashed=1;html=1;rounded=0;" edge="1" parent="1">
          <mxGeometry width="50" height="50" relative="1" as="geometry">
            <mxPoint x="520" y="310" as="sourcePoint" />
            <mxPoint x="520" y="10" as="targetPoint" />
          </mxGeometry>
        </mxCell>
        <mxCell id="Md4oS-6Q53LpxxrgLM5H-36" value="Firewall or NAT Boundary" style="text;html=1;align=center;verticalAlign=middle;whiteSpace=wrap;rounded=0;" vertex="1" parent="1">
          <mxGeometry x="480" y="310" width="80" height="30" as="geometry" />
        </mxCell>
      </root>
    </mxGraphModel>
  </diagram>
</mxfile>
